<svg data-name="search (2)" xmlns="http://www.w3.org/2000/svg" width="23.61" height="23.61">
    <path data-name="Tracé 7" d="m5.233 146.16-.822 3.068-3 .064a11.826 11.826 0 0 1-.087-11.023l2.674.49 1.171 2.658a7.045 7.045 0 0 0 .066 4.743z" transform="translate(0 -131.892)" style="fill:#fbbb00"/>
    <path data-name="Tracé 8" d="M272.967 208.176a11.8 11.8 0 0 1-4.208 11.411l-3.368-.172-.477-2.976a7.036 7.036 0 0 0 3.027-3.593h-6.312v-4.67h11.339z" transform="translate(-249.563 -198.576)" style="fill:#518ef8"/>
    <path data-name="Tracé 9" d="M48.3 316.151a11.809 11.809 0 0 1-17.789-3.612l3.826-3.132A7.021 7.021 0 0 0 44.452 313z" transform="translate(-29.102 -295.141)" style="fill:#28b446"/>
    <path data-name="Tracé 10" d="M46.644 2.718 42.82 5.849a7.02 7.02 0 0 0-10.35 3.676l-3.845-3.149a11.808 11.808 0 0 1 18.02-3.658z" transform="translate(-27.304)" style="fill:#f14336"/>
</svg>
